<svg width="40" height="40" viewBox="0 0 40 40" fill="none" xmlns="http://www.w3.org/2000/svg">
<path d="M26.24 3.92C23.64 5.22 22.74 8.18 24.06 11.08C25.06 13.24 26.64 14.4 28.58 14.4C29.9 14.4 30.9 13.9 31.96 12.68C34.62 9.66 33.86 5.1 30.48 3.68C29.36 3.22 27.44 3.32 26.24 3.92Z" fill="white"/>
<path d="M13.6 7.78C10.96 8.6 8.91999 11.1 8.65999 13.86C8.35999 17.08 10.46 20.82 13.32 22.14C15.4 23.08 17.84 22.58 19.66 20.84C22.08 18.5 23.04 14.74 21.96 11.86C21.38 10.28 19.72 8.62 18.14 8.04C16.96 7.58 14.66 7.46 13.6 7.78Z" fill="white"/>
<path d="M23.94 15.28C23.8 16.82 23.2 18.56 22.4 19.86C21.72 20.96 21.7 21 22.06 21C22.44 21 25.1 22.68 26.2 23.6L27.16 24.4H32.94C37.16 24.4 38.78 24.34 38.96 24.16C39.52 23.6 39.06 20.96 38.06 18.84C37.48 17.58 34.98 14.94 33.78 14.32L33.08 13.94L32.14 14.66C29.76 16.48 27.16 16.46 24.78 14.58L24.06 14.02L23.94 15.28Z" fill="white"/>
<path d="M19.6 22.84C17.48 24.36 15.02 24.58 12.66 23.52C11.98 23.2 11.26 22.78 11.08 22.58C10.58 22.02 10.08 22.12 8.39999 23.04C6.37999 24.14 3.55999 26.96 2.55999 28.9C1.49999 30.94 0.939994 32.98 0.919994 34.88L0.899994 36.5L15.42 36.56C27.72 36.6 29.98 36.56 30.18 36.32C30.5 35.94 30.14 32.98 29.58 31.32C28.32 27.6 25.7 24.56 22.2 22.82L20.7 22.06L19.6 22.84Z" fill="white"/>
</svg>
